<?xml version="1.0"?>
<svg width="300" height="300" xmlns="http://www.w3.org/2000/svg">
 <g>
  <title>background</title>
  <rect x="-1" y="-1" width="302" height="302" id="canvas_background" fill="none"/>
 </g>

 <g>
  <title>Layer 1</title>
  <g id="svg_1">
   <path d="m55.97184,107.961426c-0.387001,0.213005 -0.773998,0.426003 -1.139,0.628006c-1.206001,-1.004005 -1.848999,-2.264008 -2.368,-3.600006c-0.729,-1.875999 -1.557999,-3.723999 -2.132999,-5.646996c-0.48,-1.605003 -0.771,-3.290001 -0.936001,-4.959999c-0.195,-1.966003 -0.229,-3.954002 -0.208,-5.931c0.014999,-1.356003 0.227001,-2.712006 0.390999,-4.064003c0.027,-0.224998 0.211002,-0.518997 0.405003,-0.618004c0.599998,-0.303993 1.223,-0.596992 1.870998,-0.760986c0.525002,-0.133003 1.104,-0.032997 1.650002,-0.105003c1.011997,-0.133995 1.856998,0.283005 2.653,0.790001c0.785999,0.500999 1.217999,1.238007 1.138,2.219002c-0.032001,0.388 -0.078003,0.791 -0.013,1.168999c0.196999,1.146004 -0.277,2.082001 -0.803001,3.035004c-0.895,1.621002 -1.756001,3.259995 -2.606998,4.904999c-0.470001,0.907997 -0.577,1.916 -0.683002,2.916c-0.042999,0.405998 0.048,0.757004 0.418003,1.017998c0.528999,0.374001 1.019997,0.801003 1.546997,1.178009c0.894001,0.640007 1.802002,1.261993 2.707001,1.885994c0.239002,0.165001 0.485001,0.319 0.737,0.463013c0.575001,0.329987 0.885002,0.889999 0.732002,1.531998c-0.165001,0.689987 -0.406002,1.362999 -0.631001,2.038002c-0.101002,0.301987 -0.244999,0.589996 -0.257,1.009987c0.203999,-0.161003 0.426998,-0.301987 0.607998,-0.485001c0.821003,-0.830994 1.636002,-1.668999 2.443001,-2.513c1.799999,-1.882996 3.963001,-3.240997 6.284,-4.375c2.456001,-1.200996 5.016991,-2.125 7.637993,-2.888c0.647995,-0.188004 1.325996,-0.272003 1.987999,-0.411995c0.185997,-0.039001 0.363998,-0.117004 0.547997,-0.167c0.747993,-0.205002 1.487,-0.474007 2.249001,-0.597c3.973,-0.637009 7.951004,-1.245003 11.93,-1.842003c0.864998,-0.129997 1.740997,-0.204002 2.614998,-0.249001c1.654007,-0.085999 3.310005,-0.142998 4.966003,-0.193001c3.184013,-0.097 6.371002,-0.141998 9.553001,-0.284996c2.332001,-0.104004 4.656998,-0.378006 6.988998,-0.487c2.014999,-0.094002 4.037003,-0.009003 6.052002,-0.097c2.267998,-0.099007 4.531998,-0.307007 6.798035,-0.457001c0.55101,-0.036003 1.105026,-0.040001 1.657028,-0.042007c1.303024,-0.005997 2.606064,0.011002 3.908112,-0.003998c2.964066,-0.035995 5.897079,0.348 8.839096,0.613998c1.098007,0.098999 2.208008,0.073006 3.306,0.176003c2.001007,0.187004 3.994003,0.484001 5.997009,0.630005c1.860992,0.135994 3.615997,0.643997 5.371002,1.211998c2.37999,0.769997 4.778992,1.479996 7.153992,2.264c2.775009,0.917 5.518997,1.926994 8.302002,2.819c2.044998,0.655998 3.990997,1.553001 5.931,2.436996c1.792999,0.816994 3.465988,1.911995 4.988007,3.195999c0.599991,0.506004 1.233994,0.939003 1.985992,1.201004c1.255997,0.438995 2.499008,0.914001 3.746979,1.374001c0.213013,0.078995 0.443008,0.128998 0.63501,0.243004c1.46701,0.865005 3.065994,1.405998 4.666992,1.954994c1.411011,0.485001 2.794006,1.052002 4.189011,1.584c2.035995,0.777 4.074997,1.428001 6.311996,1.434998c2.660004,0.008003 5.319,0.324997 7.979004,0.328003c2.399002,0.002998 4.798996,-0.218987 7.195999,-0.375c1.457001,-0.093987 2.908997,-0.247002 4.362991,-0.380989c0.291,-0.027 0.581009,-0.071007 0.868011,-0.125999c1.209991,-0.235001 2.413986,-0.500999 3.627991,-0.710999c2.005005,-0.347 4.048004,-0.530014 6.016006,-1.020004c2.507996,-0.624001 5.005997,-1.015999 7.599991,-0.968994c2.740997,0.049995 5.056,1.023994 6.962006,2.921997c1.076004,1.070999 2.080002,2.242996 2.951004,3.485001c0.776993,1.107986 1.32399,2.376999 1.978989,3.571999c0.425003,0.775993 0.488998,1.646996 0.353989,2.456993c-0.105988,0.638 -0.519989,1.24501 -0.876968,1.81601c-0.681,1.092987 -1.604004,1.935997 -2.748001,2.559998c-0.645004,0.351997 -1.222,0.828995 -1.942001,1.325996c1.417007,0.786003 1.34201,2.055 1.346008,3.295006c0.000992,0.227997 0.001999,0.455994 0,0.684006c-0.01001,1.074005 0.487991,1.822006 1.386002,2.404999c1.002991,0.651001 1.98999,1.345001 2.892975,2.125c0.687988,0.595001 1.130981,1.42601 1.432983,2.291c0.332001,0.947998 0.548004,1.937012 0.900024,2.876007c0.612976,1.636993 1.272003,3.253998 2.299988,4.697998c1.732025,2.432999 3.528015,4.820007 5.067993,7.389999c0.64502,1.076996 1.529022,2.009995 2.301025,3.011002c0.256989,0.332993 0.504974,0.673004 0.759003,1.009003c1.561981,2.063995 2.700989,4.354996 3.653992,6.748993c0.227997,0.572006 0.477997,1.143997 0.796997,1.667999c1.191986,1.955002 2.024994,4.072998 2.863007,6.188004c0.514984,1.300995 1.29599,2.366989 2.423004,3.220001c1.579987,1.195999 3.149994,2.410995 4.638,3.715988c0.946991,0.830002 1.745972,1.82901 2.596985,2.766006c0.480011,0.528992 0.937988,1.078003 1.389008,1.632004c0.138,0.168976 0.316986,0.382996 0.315002,0.57399c-0.013,1.00499 0.042999,2.034012 -0.149017,3.01001c-0.509003,2.575989 -1.889984,4.694 -3.843994,6.403976c-2.035004,1.782013 -4.403992,2.973022 -7.033997,3.640015c-0.878998,0.223007 -1.733002,0.542999 -2.615997,0.746002c-0.884003,0.203003 -1.794006,0.292007 -2.68399,0.471985c-1.110016,0.223999 -2.240021,0.404022 -3.309021,0.76001c-1.406982,0.46701 -2.815979,0.654999 -4.297974,0.713989c-2.019012,0.081009 -3.822021,-0.432999 -5.636017,-1.240997c-2.641998,-1.177002 -5.363007,-2.170013 -8.218994,-2.727997c-1.804001,-0.352997 -3.632004,-0.279999 -5.449005,-0.216003c-1.565002,0.054001 -3.115997,0.12999 -4.633011,-0.360992c-1.87001,-0.605011 -3.796005,-0.506989 -5.710007,-0.396011c-2.266006,0.131012 -4.524002,0.458008 -6.789001,0.513c-3.582001,0.085999 -7.110001,-0.377991 -10.602997,-1.241989c-3.628998,-0.897003 -7.261993,-1.764999 -10.794006,-3c-2.112,-0.738007 -3.945999,-1.89801 -5.496994,-3.563004c-0.809006,-0.867996 -1.488007,-1.779999 -2.083008,-2.792999c-0.454987,-0.775009 -1.048996,-1.465988 -1.563995,-2.207001c-0.360001,-0.518005 -0.901001,-0.728989 -1.455002,-0.921997c-1.96199,-0.682999 -3.929001,-1.352005 -5.888992,-2.041c-0.610001,-0.215012 -1.192001,-0.230011 -1.796997,0.019989c-2.087006,0.861023 -4.279999,1.133011 -6.499008,0.882004c-0.834991,-0.093994 -1.625,-0.593994 -2.419998,-1.082993c-0.416992,0.168991 -0.845993,0.314987 -1.25,0.510986c-2.923004,1.420013 -5.884995,2.768021 -8.748001,4.300003c-2.806,1.501999 -5.496994,3.21701 -8.263,4.794998c-1.069992,0.611023 -2.162003,1.24501 -3.325012,1.615021c-1.665009,0.531006 -3.376999,0.604996 -5.008987,-0.306c-1.049011,-0.585999 -2.138992,-1.100998 -3.220001,-1.628021c-0.863998,-0.42099 -1.786011,-0.557999 -2.746002,-0.552979c-1.557999,0.009003 -3.121994,0.100006 -4.662994,-0.259003c-2.001999,-0.466003 -3.905029,-1.175995 -5.637085,-2.291992c-0.626007,-0.403 -1.197037,-0.889008 -1.795029,-1.335022c-0.376007,-0.278976 -0.772018,-0.470001 -1.268051,-0.362976c-0.218979,0.046997 -0.45401,0.023987 -0.682007,0.025986c-1.49202,0.01001 -1.872025,-0.248001 -2.391052,-1.636002c-0.067993,-0.182007 -0.12001,-0.372986 -0.153992,-0.563995c-0.290009,-1.621002 -1.268036,-2.878998 -2.189034,-4.167999c-0.207001,-0.289993 -0.444,-0.578003 -0.567001,-0.903992c-0.563995,-1.487 -2.932999,-2.112 -4.471001,-1.485001c-1.288994,0.526001 -2.646996,0.882996 -3.967995,1.332001c-0.583,0.197998 -1.203003,0.357986 -1.718002,0.67598c-1.767998,1.091003 -3.75,1.630005 -5.695,2.240021c-1.195999,0.375 -2.466003,0.535995 -3.713997,0.712997c-1.514999,0.214996 -2.852005,0.789993 -4.077003,1.690994c-0.440987,0.324005 -0.931,0.605988 -1.435997,0.81601c-0.792,0.328995 -1.509003,0.733978 -2.100006,1.370987c-0.261993,0.281998 -0.612,0.48201 -0.914993,0.727005c-0.202003,0.162994 -0.446007,0.307007 -0.577003,0.516998c-0.495003,0.795013 -0.950996,1.615005 -1.423996,2.425003c-0.163002,0.279022 -0.276001,0.626999 -0.513,0.815002c-0.600006,0.475998 -0.432007,1.001999 -0.248001,1.580002c0.292,0.916 0.633995,1.828003 0.799995,2.768997c0.139,0.789993 0.026001,1.62001 0.078995,2.429001c0.046005,0.709 0.125,1.421997 0.262001,2.117996c0.578995,2.938004 1.599998,5.751999 2.433998,8.618057c0.438995,1.509033 0.417007,3.077057 -0.147995,4.592056c-0.600998,1.610992 -1.723,2.899002 -2.671997,4.291992c-0.342987,0.503998 -0.764999,0.962997 -1.203003,1.391006c-0.720993,0.705994 -1.641998,0.481995 -2.500999,0.404999c-0.160995,-0.014008 -0.390999,-0.348999 -0.417999,-0.557999c-0.058006,-0.445999 -0.009995,-0.908005 0.006004,-1.363007c0.034996,-1.000992 0.090996,-2.001999 0.112,-3.003998c0.010002,-0.472 -0.167999,-0.878021 -0.530998,-1.212021c-0.716003,-0.656998 -1.428001,-1.317978 -2.112,-2.007996c-0.523003,-0.528 -1.067001,-1.056015 -1.482002,-1.666031c-0.762001,-1.121033 -1.695,-2.057037 -2.776001,-2.850052c-1.257004,-0.921005 -2.494003,-1.880005 -3.822998,-2.687012c-0.993004,-0.602997 -2.100006,-1.031998 -3.188004,-1.457993c-0.990997,-0.389008 -1.601006,-1.07402 -1.920006,-2.053009c-0.146004,-0.446991 -0.361,-0.792999 -0.776001,-1.069c-0.514,-0.342987 -0.712006,-0.935989 -0.721001,-1.530991c-0.009995,-0.610001 -0.283005,-1.062012 -0.679993,-1.460007c-1.012985,-1.014999 -1.967987,-2.071991 -2.703987,-3.315002c-0.478004,-0.807999 -1.234001,-1.358994 -2.013,-1.807999c-2.568001,-1.480988 -5.328003,-2.556 -8.056,-3.696991c-0.703003,-0.294022 -1.396,-0.259003 -1.994003,0.272003c-0.828999,0.734985 -1.855,1.041992 -2.873997,1.383987c-1.017002,0.341003 -2.034,0.69101 -3.017002,1.116989c-0.493,0.214005 -0.945999,0.563019 -1.349998,0.925995c-0.881001,0.791 -2.170002,1.033005 -3.253002,0.53801c-1.891998,-0.865005 -3.754997,-1.799988 -5.68,-2.585007c-2.220009,-0.904999 -4.481007,-1.71199 -6.907009,-1.921997c-0.542,-0.046997 -1.086998,-0.21701 -1.600998,-0.408997c-2.189003,-0.819 -4.410002,-1.575012 -6.536001,-2.536011c-1.566999,-0.709015 -3.222,-0.973999 -4.843,-1.421997c-1.438999,-0.397995 -2.879999,-0.807999 -4.281,-1.319992c-1.528999,-0.559006 -2.423,-1.699997 -2.948,-3.270996c-0.613999,-1.837021 -1.139,-3.720001 -2.174999,-5.405014c-0.860001,-1.398987 -1.306001,-3.007004 -1.523001,-4.597c-0.202,-1.481995 -0.039,-3.026993 0.077001,-4.535004c0.071,-0.925995 0.825999,-1.422012 1.747999,-1.509003c2.043,-0.194 4.024001,0.223999 5.97,0.684006c1.808001,0.427994 3.214001,1.634995 4.502001,2.964996c1.442999,1.48999 2.941,2.925995 4.417999,4.382004c0.462999,0.456009 1.028,0.837997 1.389,1.362015c0.811001,1.173996 2.046999,1.531982 3.288,1.916977c0.495998,0.154022 1.009998,0.254013 1.5,0.425003c1.550999,0.541 3.150002,0.779999 4.785,0.74501c1.981998,-0.041992 3.962002,-0.134018 5.944,-0.181015c1.104,-0.026978 2.209999,-0.035995 3.313,-0.001999c1.762001,0.054001 3.416,-0.389999 5.004002,-1.080002c0.645,-0.279984 1.239998,-0.703979 1.805,-1.131989c1.709,-1.294006 3.405998,-2.595001 4.455997,-4.555984c0.512001,-0.957001 1.358002,-1.53801 2.496002,-1.660004c0.476009,-0.05098 0.935997,-0.258987 1.401001,-0.400009c2.049995,-0.620987 4.102997,-1.230988 6.146996,-1.868988c1.574005,-0.492004 3.135994,-1.022003 4.703995,-1.529999c0.834999,-0.270004 1.667,-0.550995 2.510994,-0.787994c0.491005,-0.138 0.685005,-0.420013 0.676003,-0.917007c-0.016998,-0.912003 -0.065002,-1.828995 0.015999,-2.733994c0.059006,-0.66301 0.277,-1.318008 0.474998,-1.961014c0.142006,-0.462997 0.363007,-0.901993 0.557007,-1.347992c0.243996,-0.559998 0.493996,-1.117004 0.746994,-1.673004c0.054001,-0.117996 0.157005,-0.216995 0.193001,-0.337997c0.462006,-1.550995 1.615005,-2.449997 2.962006,-3.175995c0.341995,-0.184006 0.671005,-0.398987 0.986,-0.627014c1.844994,-1.33699 4.014999,-1.971985 6.082993,-2.827988c0.324013,-0.134003 0.692001,-0.154999 1.033005,-0.254013c1.803986,-0.526001 3.055,-1.794006 4.209999,-3.178986c0.555,-0.665009 1.224998,-1.231018 1.546997,-2.093018c0.334999,-0.896988 0.425003,-1.082993 -0.360001,-1.817993c-1.129997,-1.056 -2.432999,-1.957001 -3.306,-3.276001c-0.104996,-0.158005 -0.245995,-0.306 -0.300995,-0.481003c-0.368004,-1.175003 -1.157005,-2.01799 -2.121994,-2.719986c-0.235001,-0.171021 -0.492996,-0.364014 -0.766006,-0.419006c-1.362999,-0.274994 -2.725998,-0.621994 -4.105003,-0.714005c-0.875,-0.057999 -1.777,0.284988 -2.665001,0.451996c-0.060997,0.010986 -0.127998,0.044006 -0.169998,0.087997c-1.191002,1.248001 -2.766998,2.185013 -3.237,4.018005c-0.171997,0.671997 -0.501999,1.25 -1.011002,1.73999c-0.675995,0.651001 -1.299995,1.35701 -1.986,1.996002c-0.251999,0.235001 -0.613998,0.358002 -0.935997,0.511002c-0.760002,0.360001 -1.568001,0.639999 -2.281013,1.076004c-1.117989,0.683014 -2.347977,1.011002 -3.600975,1.057007c-1.716003,0.063995 -3.466003,0.073013 -5.153,-0.195999c-1.584,-0.253006 -3.223003,-0.675995 -4.629002,-1.419006c-2.456001,-1.298004 -4.857002,-2.776993 -6.302002,-5.319992c-0.170998,-0.300003 -0.306,-0.634018 -0.386997,-0.969009c-0.447002,-1.839005 -0.591003,-3.696999 -0.539001,-5.598c0.042,-1.542999 -0.105999,-3.073997 -0.731998,-4.573997c-0.436001,-1.044998 -0.429001,-2.279007 -0.597,-3.431c-0.060001,-0.416 -0.025002,-0.846001 -0.080002,-1.263c-0.099998,-0.761002 -0.088001,-0.797997 0.691002,-0.912003c0.125,-0.017998 0.252998,-0.014 0.523998,-0.028c0.106998,0.420013 0.243,0.838013 0.317001,1.267006c0.166,0.957008 0.258999,1.929008 0.466999,2.876007c0.116001,0.527 0.399998,1.016998 0.613998,1.520996c0.556,1.314003 1.000999,2.652 0.951,4.108002c-0.018997,0.553001 0.028999,1.109001 -0.009998,1.659996c-0.095001,1.353012 0.288998,2.639999 0.528,3.942993c0.070999,0.390015 0.343998,0.759003 0.579998,1.099014c0.759003,1.091995 1.525002,2.17099 2.708,2.882996c0.999001,0.600998 1.901001,1.378006 2.933002,1.906006c1.565006,0.800003 3.261005,1.268005 5.007,1.528c1.298996,0.194 2.598007,0.250992 3.846001,-0.231003c0.688995,-0.266006 1.341995,-0.626007 2.008995,-0.949997c0.116005,-0.056 0.208,-0.181 0.326004,-0.208008c1.300987,-0.298996 2.161987,-1.242996 3.072998,-2.100998c0.639,-0.600998 1.173004,-1.279007 1.431,-2.155991c0.387993,-1.319016 1.181,-2.363007 2.314003,-3.145004c0.106995,-0.074005 0.255997,-0.119003 0.32,-0.218994c1.064995,-1.663002 2.889999,-1.694 4.502998,-1.869003c2.254013,-0.246002 4.523003,-0.067993 6.746002,0.612c1.651001,0.505997 2.795998,1.516998 3.495995,3.007004c0.513,1.089996 1.271004,1.929001 2.134003,2.710999c0.671013,0.606995 1.369003,1.186005 2.026001,1.807999c0.523003,0.496002 0.445999,1.143997 0.227997,1.727997c-0.213997,0.573013 -0.477005,1.166 -0.865005,1.628006c-0.875,1.042999 -1.802994,2.048019 -2.778,2.998016c-1.025993,0.998993 -2.357994,1.501984 -3.689995,1.928986c-2.294998,0.735001 -4.541,1.541992 -6.546997,2.934006c-0.767998,0.533005 -1.588997,0.947006 -2.255997,1.658005c-0.519005,0.552002 -0.768005,1.199005 -1.072006,1.828003c-0.564995,1.165985 -1.086998,2.356995 -1.549995,3.565994c-0.452003,1.181992 -0.300995,2.440994 -0.306999,3.674988c-0.007004,1.391006 -0.191002,1.649002 -1.537003,2.081009c-2.654999,0.854004 -5.305992,1.720993 -7.96698,2.554993c-2.042999,0.639999 -4.07,1.386002 -6.159996,1.804001c-1.422005,0.283997 -2.142014,1.065002 -2.859005,2.179001c-0.585999,0.908997 -1.412998,1.694 -2.238998,2.410995c-1.271,1.102005 -2.592999,2.153 -4.128002,2.895004c-1.762997,0.85199 -3.651997,1.168991 -5.570999,1.225998c-3.933998,0.115997 -7.869999,0.145004 -11.805008,0.212997c-1.900002,0.033005 -3.756001,-0.179977 -5.549,-0.858978c-0.879013,-0.332001 -1.778002,-0.620026 -2.685011,-0.862c-0.602001,-0.160004 -1.022001,-0.52301 -1.447001,-0.934021c-0.883999,-0.854996 -1.823,-1.654999 -2.688999,-2.526978c-1.323,-1.332001 -2.597,-2.712021 -3.905001,-4.060013c-1.007,-1.03801 -2.157999,-1.928009 -3.514999,-2.39801c-1.15,-0.397995 -2.394001,-0.522995 -3.634001,-0.775986c-0.34,0.784988 -0.544,1.480988 -0.556,2.238998c-0.037,2.561996 0.621,4.965988 1.858999,7.169006c0.951,1.692993 1.480001,3.528 2.093,5.330002c0.491001,1.444 1.321001,2.494995 2.733,2.932983c2.134001,0.662018 4.314001,1.172012 6.470991,1.76001c0.5,0.135986 0.989,0.313995 1.473999,0.498993c1.426001,0.542999 2.847,1.098999 4.27,1.649994c0.574001,0.222 1.167,0.404999 1.716,0.675995c1.448002,0.713989 2.998001,1.001007 4.574001,1.262009c2.310009,0.382004 4.485001,1.199997 6.587009,2.231979c1.278999,0.628021 2.596001,1.179016 3.832001,1.736023c1.784,-1.178009 3.705997,-1.70401 5.558998,-2.395004c0.629002,-0.234009 1.202999,-0.613998 1.806,-0.919006c0.459,-0.231995 0.903,-0.569 1.389999,-0.655991c1.703003,-0.302002 3.393002,-0.419006 5.069,0.304001c2.387001,1.028976 4.809998,1.968979 7.090004,3.237c1.185989,0.658997 2.262985,1.42598 2.940987,2.625c0.668991,1.182999 1.716988,2.031998 2.571991,3.048996c0.32,0.381012 0.512001,0.766998 0.545998,1.302994c0.038002,0.598007 0.264999,1.169998 0.797005,1.603012c0.329987,0.268997 0.585999,0.688995 0.749001,1.092987c0.331985,0.820999 0.811996,1.387009 1.657997,1.785004c1.582001,0.744003 3.274002,1.289001 4.684998,2.372009c1.135002,0.869995 2.288002,1.718979 3.383003,2.636993c0.569,0.47702 1.097,1.034012 1.525002,1.639038c0.871986,1.234024 1.957001,2.239059 3.090996,3.21405c0.463013,0.39801 0.854004,0.888 1.225998,1.376007c0.141014,0.18399 0.182014,0.479004 0.189003,0.726013c0.022003,0.810989 0.008003,1.623978 0.008003,2.416977c0.141998,0.029999 0.235001,0.072021 0.251999,0.05101c1.316002,-1.572998 2.413002,-3.277008 2.313995,-5.41301c-0.042,-0.914017 -0.453987,-1.811035 -0.703987,-2.715057c-0.569,-2.062027 -1.143997,-4.123032 -1.713013,-6.185043c-0.479996,-1.737 -0.516998,-3.524002 -0.617996,-5.306c-0.027,-0.475983 -0.232002,-0.940002 -0.328003,-1.414978c-0.210999,-1.043015 -0.648987,-2.033005 -0.676987,-3.122009c-0.012001,-0.465012 0.057999,-0.828995 0.460999,-1.097992c0.128998,-0.086014 0.253998,-0.206024 0.331001,-0.339005c0.501999,-0.866989 0.987,-1.744003 1.487999,-2.612c0.096001,-0.166 0.221001,-0.326996 0.365997,-0.452011c1.327003,-1.139008 2.566002,-2.403992 4.278,-2.997009c0.270004,-0.093979 0.535004,-0.240997 0.760002,-0.416977c1.573997,-1.230011 3.340004,-2 5.334,-2.166c2,-0.167007 3.888,-0.742004 5.731003,-1.486023c1.112007,-0.448975 2.182007,-1 3.296997,-1.437988c1.298004,-0.508987 2.624001,-0.947998 3.941002,-1.409988c0.582001,-0.20401 1.175003,-0.379013 1.755997,-0.589005c0.917999,-0.330994 4.995003,-0.352005 5.894005,-0.001999c0.809006,0.315002 1.442017,0.822998 1.90802,1.585999c0.624023,1.024002 1.383026,1.966995 1.981049,3.004013c0.397003,0.68898 0.61702,1.480988 0.906021,2.229996c0.057999,0.150009 0.063004,0.320007 0.110001,0.475006c0.360001,1.182007 0.559021,1.371994 1.776031,1.317993c1.091019,-0.048996 1.986053,0.210007 2.859085,0.937012c1.120026,0.931992 2.374069,1.731003 3.771057,2.21199c1.218002,0.419006 2.46701,0.753998 3.712021,1.088989c0.337006,0.091003 0.710007,0.052002 1.066986,0.065002c1.231003,0.042999 2.462021,0.080994 3.692001,0.121979c1.345001,0.045013 2.493011,0.664001 3.647003,1.262024c0.720993,0.373993 1.440994,0.750992 2.153992,1.140991c0.432999,0.236008 0.875,0.26001 1.309006,0.057999c0.822998,-0.383987 1.656998,-0.75499 2.442993,-1.207001c2.733002,-1.571991 5.412003,-3.241989 8.181,-4.746994c2.052002,-1.115005 4.216003,-2.02298 6.320007,-3.042999c0.935989,-0.453979 1.865997,-0.924988 2.766998,-1.444c1.080002,-0.623001 2.214005,-0.865005 3.457993,-0.817978c0.884003,0.032974 1.715012,0.052979 2.492004,0.591995c0.858002,0.595001 1.809006,0.595993 2.794998,0.218002c2.011002,-0.770004 4.113998,-0.909012 6.242004,-0.785019c0.222,0.013016 0.445999,0.078018 0.658997,0.150009c2.028,0.690994 4.057999,1.375 6.076996,2.091995c0.980011,0.348007 1.674011,1.024017 2.269012,1.897003c1.01799,1.493011 1.83699,3.106995 3.175995,4.409988c1.660995,1.618011 3.563995,2.747025 5.733002,3.378998c3.677979,1.070999 7.388992,2.031021 11.102005,2.975998c2.362991,0.601013 4.775986,0.960022 7.219986,0.972015c1.134003,0.006012 2.282013,-0.032013 3.400009,-0.207001c2.748993,-0.431 5.511002,-0.371994 8.272995,-0.355988c1.270004,0.007996 2.518005,0.231979 3.723999,0.651001c0.525009,0.181992 1.048996,0.178986 1.613998,0.15799c4.302002,-0.154999 8.588013,-0.12001 12.660004,1.611008c1.703003,0.723984 3.454987,1.334991 5.152985,2.070999c1.356018,0.587006 2.698029,0.697998 4.068024,0.160995c1.621002,-0.634995 3.334991,-0.834 5.027985,-1.134003c1.438995,-0.25499 2.853973,-0.570999 4.248016,-1.034988c1.231995,-0.409012 2.481995,-0.728012 3.651001,-1.332001c3.204987,-1.654999 5.326996,-4.172989 6.315002,-7.644989c0.097961,-0.343018 0.279999,-0.675995 0.307953,-1.022003c0.090027,-1.104004 0.127014,-2.166016 -0.850952,-3.032013c-0.746002,-0.660995 -1.323029,-1.511993 -1.986023,-2.268005c-1.618988,-1.847992 -3.556,-3.332977 -5.552002,-4.730988c-1.436981,-1.007004 -2.477997,-2.272003 -3.100983,-3.903c-0.860016,-2.249008 -1.851013,-4.431015 -3.046997,-6.531021c-0.703003,-1.234985 -1.136993,-2.620987 -1.737,-3.917999c-0.298004,-0.643982 -0.687012,-1.248993 -1.054993,-1.858994c-0.369019,-0.610992 -0.735016,-1.227997 -1.154022,-1.805008c-0.587006,-0.80899 -1.255005,-1.55899 -1.828003,-2.376984c-1.488983,-2.128006 -2.936005,-4.286011 -4.419006,-6.417999c-0.721985,-1.037003 -1.518982,-2.02301 -2.221985,-3.072021c-0.464996,-0.693985 -0.82901,-1.454987 -1.231018,-2.190979c-0.784973,-1.437012 -1.192993,-3.016006 -1.627975,-4.573013c-0.485001,-1.733994 -1.554001,-2.962006 -3.004013,-3.926987c-0.513,-0.341003 -1.026001,-0.681015 -1.539001,-1.021011c-0.867996,-0.576996 -1.290009,-1.289993 -1.417007,-2.422989c-1.080978,0.440979 -2.172989,0.703979 -3.431992,0.28299c0.5,-0.723999 1.269989,-0.574997 1.789993,-0.927002c0.537994,-0.363998 1.10202,-0.689987 1.632004,-1.018997c0.140991,-0.651001 0.274002,-1.268997 0.40799,-1.884995c-0.439987,-0.369995 -0.882996,-0.699005 -1.272995,-1.082001c-0.867996,-0.851997 -0.819992,-1.125 0.175995,-1.770996c1.007004,-0.653 1.992004,-1.338005 2.992004,-2.001999c0.811996,-0.539001 1.30098,-1.34201 1.785995,-2.149002c0.049011,-0.082001 0.040009,-0.206009 0.101013,-0.272003c1.155991,-1.259995 0.572998,-2.473999 -0.132004,-3.645996c-0.751007,-1.249008 -1.55101,-2.471008 -2.360001,-3.684006c-0.895996,-1.344002 -2.277008,-1.976997 -3.744003,-2.481995c-2.335999,-0.805008 -4.684998,-0.637009 -7.000992,-0.015999c-2.264999,0.606987 -4.56601,0.956993 -6.878006,1.289993c-1.475998,0.212997 -2.934998,0.545006 -4.410995,0.765007c-1.570999,0.233994 -3.149002,0.44799 -4.731003,0.581993c-2.520996,0.213005 -5.046997,0.397003 -7.574997,0.503006c-1.391998,0.058998 -2.792007,-0.060005 -4.188004,-0.109001c-1.721008,-0.061005 -3.44101,-0.180008 -5.160995,-0.189003c-2.139999,-0.010994 -4.189011,-0.43 -6.183014,-1.172005c-2.12999,-0.792992 -4.259995,-1.584999 -6.385986,-2.386993c-0.577011,-0.218002 -1.158005,-0.438004 -1.708008,-0.713997c-1.076004,-0.541008 -2.203995,-0.932007 -3.325012,-1.361c-2.018005,-0.772003 -4.031006,-1.528008 -5.748001,-3.004013c-1.740005,-1.495003 -3.775986,-2.637993 -6.001999,-3.351006c-0.154999,-0.049995 -0.324997,-0.074997 -0.460999,-0.155998c-1.753998,-1.047997 -3.778,-1.366997 -5.651001,-2.092987c-1.30098,-0.504013 -2.606979,-1.002007 -3.929001,-1.447014c-2.185989,-0.734993 -4.384979,-1.432999 -6.584,-2.128998c-1.547989,-0.488998 -3.096008,-0.984001 -4.662979,-1.405998c-0.903,-0.244003 -1.838013,-0.392998 -2.768021,-0.507004c-2.318008,-0.284996 -4.638,-0.553001 -6.962997,-0.772995c-1.518997,-0.143005 -3.055008,-0.113998 -4.568008,-0.294006c-3.791992,-0.449997 -7.5961,-0.407997 -11.399185,-0.360992c-1.391037,0.016998 -2.779068,0.237 -4.171082,0.334991c-0.908005,0.064003 -1.818993,0.086006 -2.729004,0.108009c-2.892998,0.070999 -5.794998,0.018997 -8.676994,0.231995c-2.692001,0.198997 -5.379005,0.321999 -8.077003,0.373001c-3.475006,0.065002 -6.948006,0.234001 -10.421013,0.377998c-2.437996,0.101006 -4.833,0.562004 -7.237999,0.931c-2.821999,0.434006 -5.657997,0.809998 -8.452995,1.382004c-2.187004,0.447998 -4.332001,1.117996 -6.473999,1.760994c-1.366005,0.410004 -2.737991,0.856003 -4.026993,1.457008c-2.555,1.190994 -5.116997,2.369995 -7.207001,4.369995c-3.308998,3.166 -6.692001,6.254997 -10.035999,9.385002c-0.355,0.331993 -0.649002,0.727997 -0.989002,1.077003c-0.432999,0.444992 -0.633999,0.449997 -1.064999,0.069992c-0.516998,-0.455994 -0.538998,-0.627998 -0.119999,-1.129997c0.416,-0.499001 0.774998,-1.074013 1.273998,-1.470001c1.535,-1.219994 2.318001,-2.943001 3.227001,-4.58799c0.056999,-0.102997 0.039001,-0.246994 0.056,-0.373001c0.627998,-0.950996 1.067001,-1.972 1.259998,-3.105995c0.078003,-0.461006 -0.056999,-0.729004 -0.417999,-0.980003c-0.691998,-0.481003 -1.349998,-1.010002 -2.044998,-1.487007c-0.317001,-0.217995 -0.602001,-0.543007 -1.139999,-0.585007c0.327,0.901001 0.599998,1.695007 0.902,2.478004c0.475998,1.237 0.973,2.465996 1.460999,3.697998l0.00005,-0.000031zm-4.230999,-12.401001c0.403999,-0.799995 0.736,-1.492996 1.099998,-2.169998c0.382,-0.711998 0.802002,-1.403 1.191002,-2.111c0.342999,-0.624001 0.681,-1.252998 0.996998,-1.890999c0.468002,-0.947998 0.393002,-1.984001 0.255001,-2.959c-0.167999,-1.191002 -1.682999,-2.177002 -3.009998,-2.149002c-0.661003,0.014 -0.856003,0.105003 -0.908001,0.743004c-0.127003,1.567001 -0.577999,3.139999 -0.000999,4.710999c0.050999,0.139 0.003998,0.312996 0.007999,0.470001c0.042999,1.584 0.080997,3.167999 0.138,4.750999c0.004997,0.166 0.120998,0.327995 0.23,0.604996z" id="svg_2"/>
   <path d="m68.716843,119.355423c0.241997,-0.927986 0.433998,-1.666992 0.651001,-2.498993c0.428993,-0.439987 0.964996,-0.453003 1.590996,-0.106995c0.557999,0.309006 1.169998,0.518005 1.745003,0.800003c0.485001,0.239014 0.882996,0.560013 0.789001,1.198013c-0.019005,0.126999 -0.004013,0.259987 -0.001007,0.389992c0.024994,1.065994 -0.018005,1.120995 -1.118996,1.362999c0.039001,0.897003 -0.414993,1.533005 -1.111992,2.104004c-0.334,0.273003 -0.455002,0.806999 -0.710999,1.296997c-2.002998,0.121994 -3.820999,-0.441994 -5.133003,-2.219994c-0.018997,-0.026001 -0.042999,-0.052002 -0.051987,-0.082001c-0.400002,-1.273003 -0.409004,-2.558006 0.037987,-3.808006c0.179001,-0.500992 0.556,-0.569992 1.036003,-0.278999c0.409996,0.248009 0.776001,0.569008 1.151001,0.871994c0.323997,0.264 0.635002,0.546013 1.126999,0.971001l-0.000008,-0.000015zm-1.712006,1.383011c0.391006,-0.264 0.707001,-0.477005 1.099007,-0.742004c-0.416,-0.242996 -0.702003,-0.410004 -1.099007,-0.642006c0,0.503006 0,0.869995 0,1.383995l0,0.000015z" id="svg_3"/>
  </g>
 </g>
</svg>